{
  "accessors": [
    {
      "bufferView": 2,
      "componentType": 5126,
      "count": 16110,
      "max": [
        0.13731849193572998,
        -0.0242081880569458,
        0.03487205505371094
      ],
      "min": [
        -0.9694575071334839,
        -0.622310221195221,
        -0.7199549674987793
      ],
      "type": "VEC3"
    },
    {
      "bufferView": 2,
      "byteOffset": 193320,
      "componentType": 5126,
      "count": 16110,
      "max": [
        0.9998636245727539,
        0.999984622001648,
        0.9999150633811951
      ],
      "min": [
        -0.9994220733642578,
        -0.9997888803482056,
        -0.9997824430465698
      ],
      "type": "VEC3"
    },
    {
      "bufferView": 3,
      "componentType": 5126,
      "count": 16110,
      "max": [
        0.9995148777961731,
        0.9999579191207886,
        0.9999352693557739,
        1.0
      ],
      "min": [
        -0.9998005628585815,
        -0.9998770952224731,
        -0.9999995827674866,
        -1.0
      ],
      "type": "VEC4"
    },
    {
      "bufferView": 1,
      "componentType": 5126,
      "count": 16110,
      "max": [
        0.9900000095367432,
        0.8849575519561768
      ],
      "min": [
        0.009999999776482582,
        0.009999999776482582
      ],
      "type": "VEC2"
    },
    {
      "bufferView": 1,
      "byteOffset": 128880,
      "componentType": 5126,
      "count": 16110,
      "max": [
        0.9900000095367432,
        0.8849575519561768
      ],
      "min": [
        0.009999999776482582,
        0.009999999776482582
      ],
      "type": "VEC2"
    },
    {
      "bufferView": 1,
      "byteOffset": 257760,
      "componentType": 5126,
      "count": 16110,
      "max": [
        0.9900000095367432,
        0.8849575519561768
      ],
      "min": [
        0.009999999776482582,
        0.009999999776482582
      ],
      "type": "VEC2"
    },
    {
      "bufferView": 1,
      "byteOffset": 386640,
      "componentType": 5126,
      "count": 16110,
      "max": [
        0.9900000095367432,
        0.8849575519561768
      ],
      "min": [
        0.009999999776482582,
        0.009999999776482582
      ],
      "type": "VEC2"
    },
    {
      "bufferView": 0,
      "componentType": 5125,
      "count": 83382,
      "type": "SCALAR"
    }
  ],
  "asset": {
    "extras": {
      "author": "Pavan (https://sketchfab.com/pavangopa)",
      "license": "CC-BY-4.0 (http://creativecommons.org/licenses/by/4.0/)",
      "source": "https://sketchfab.com/3d-models/abstract-waves-e7fb96866ba44c6db951e6b59959c348",
      "title": "Abstract waves"
    },
    "generator": "Sketchfab-15.55.0",
    "version": "2.0"
  },
  "bufferViews": [
    {
      "buffer": 0,
      "byteLength": 333528,
      "name": "floatBufferViews",
      "target": 34963
    },
    {
      "buffer": 0,
      "byteLength": 515520,
      "byteOffset": 333528,
      "byteStride": 8,
      "name": "floatBufferViews",
      "target": 34962
    },
    {
      "buffer": 0,
      "byteLength": 386640,
      "byteOffset": 849048,
      "byteStride": 12,
      "name": "floatBufferViews",
      "target": 34962
    },
    {
      "buffer": 0,
      "byteLength": 257760,
      "byteOffset": 1235688,
      "byteStride": 16,
      "name": "floatBufferViews",
      "target": 34962
    }
  ],
  "buffers": [
    {
      "byteLength": 1493448,
      "uri": "scene.bin"
    }
  ],
  "extensionsUsed": [
    "KHR_materials_specular"
  ],
  "images": [
    {
      "uri": "textures/Material_baseColor.png"
    },
    {
      "uri": "textures/Material_metallicRoughness.png"
    },
    {
      "uri": "textures/Material_normal.png"
    }
  ],
  "materials": [
    {
      "doubleSided": true,
      "extensions": {
        "KHR_materials_specular": {
          "specularColorFactor": [
            1.0,
            1.0,
            1.0
          ],
          "specularFactor": 0.0
        }
      },
      "name": "Material",
      "normalTexture": {
        "index": 2
      },
      "pbrMetallicRoughness": {
        "baseColorTexture": {
          "index": 0
        },
        "metallicRoughnessTexture": {
          "index": 1
        }
      }
    }
  ],
  "meshes": [
    {
      "name": "__mesh_1_Material_0",
      "primitives": [
        {
          "attributes": {
            "NORMAL": 1,
            "POSITION": 0,
            "TANGENT": 2,
            "TEXCOORD_0": 3,
            "TEXCOORD_1": 4,
            "TEXCOORD_2": 5,
            "TEXCOORD_3": 6
          },
          "indices": 7,
          "material": 0,
          "mode": 4
        }
      ]
    }
  ],
  "nodes": [
    {
      "children": [
        1
      ],
      "matrix": [
        1.0,
        0.0,
        0.0,
        0.0,
        0.0,
        2.220446049250313e-16,
        -1.0,
        0.0,
        0.0,
        1.0,
        2.220446049250313e-16,
        0.0,
        0.0,
        0.0,
        0.0,
        1.0
      ],
      "name": "Sketchfab_model"
    },
    {
      "children": [
        2
      ],
      "matrix": [
        1.0,
        0.0,
        0.0,
        0.0,
        0.0,
        0.0,
        1.0,
        0.0,
        0.0,
        -1.0,
        0.0,
        0.0,
        0.0,
        0.0,
        0.0,
        1.0
      ],
      "name": "5d9d2a91f3644458aec7eee314c14c0d.fbx"
    },
    {
      "children": [
        3
      ],
      "name": "RootNode"
    },
    {
      "children": [
        4
      ],
      "matrix": [
        -0.2242070700543366,
        0.9075461125195543,
        0.35509328828956277,
        0.0,
        0.3166687189996751,
        0.41244250063171173,
        -0.8541733466221979,
        0.0,
        -0.921657263924478,
        -0.07906476663663198,
        -0.3798639895172222,
        0.0,
        -0.3429241180419922,
        1.103425145149231,
        -0.30708396434783936,
        1.0
      ],
      "name": "__mesh_1"
    },
    {
      "mesh": 0,
      "name": "__mesh_1_Material_0"
    }
  ],
  "samplers": [
    {
      "magFilter": 9729,
      "minFilter": 9987,
      "wrapS": 10497,
      "wrapT": 10497
    }
  ],
  "scene": 0,
  "scenes": [
    {
      "name": "Sketchfab_Scene",
      "nodes": [
        0
      ]
    }
  ],
  "textures": [
    {
      "sampler": 0,
      "source": 0
    },
    {
      "sampler": 0,
      "source": 1
    },
    {
      "sampler": 0,
      "source": 2
    }
  ]
}
